<svg version="1.2" baseProfile="tiny-ps" xmlns="http://www.w3.org/2000/svg" viewBox="0 0 196 17" width="196" height="17">
	<title>logo-svg</title>
	<style>
		tspan { white-space:pre }
		.s0 { fill: #676c72 } 
		.s1 { fill: #ea4335 } 
		.s2 { fill: #4285f4 } 
		.s3 { fill: #fbbc04 } 
		.s4 { fill: #0f9d58 } 
	</style>
	<g id="Page-1">
		<g id="Group-2">
			<path id="DeveloperStudentClubs" fill-rule="evenodd" class="s0" d="m39 12.98v-10.74h3.24c1.1 0 2.06 0.23 2.88 0.68c0.82 0.46 1.45 1.09 1.89 1.9c0.44 0.81 0.66 1.74 0.66 2.79c0 1.05-0.22 1.98-0.66 2.79c-0.44 0.81-1.07 1.44-1.89 1.9c-0.82 0.46-1.78 0.68-2.88 0.68h-3.24zm3.24-1.21c1.27 0 2.28-0.37 3.02-1.1c0.74-0.73 1.12-1.75 1.12-3.06c0-1.31-0.37-2.33-1.12-3.06c-0.75-0.73-1.75-1.09-3.02-1.09h-1.98v8.31h1.98zm8.16 0.93c-0.58-0.35-1.03-0.83-1.36-1.45c-0.33-0.62-0.49-1.31-0.49-2.08c0-0.74 0.15-1.42 0.46-2.04c0.3-0.62 0.74-1.12 1.3-1.49c0.56-0.37 1.21-0.55 1.95-0.55c0.75 0 1.4 0.17 1.95 0.5c0.55 0.33 0.97 0.8 1.27 1.39c0.3 0.59 0.44 1.26 0.44 2.03c0 0.15-0.02 0.28-0.04 0.39h-6.05c0.03 0.58 0.17 1.07 0.42 1.47c0.25 0.4 0.57 0.7 0.95 0.9c0.38 0.2 0.79 0.3 1.21 0.3c0.98 0 1.73-0.46 2.27-1.38l1.08 0.53c-0.33 0.62-0.78 1.11-1.34 1.47c-0.56 0.36-1.25 0.54-2.05 0.54c-0.73 0-1.38-0.18-1.96-0.53zm4.17-4.35c-0.02-0.32-0.11-0.64-0.27-0.96c-0.16-0.32-0.41-0.59-0.76-0.81c-0.34-0.22-0.78-0.33-1.3-0.33c-0.6 0-1.11 0.19-1.52 0.58c-0.41 0.38-0.69 0.89-0.82 1.52h4.67zm4.83 4.63l-3.09-7.65h1.37l2.37 6.15h0.03l2.4-6.15h1.34l-3.12 7.65h-1.29zm6.58-0.29c-0.58-0.35-1.03-0.83-1.36-1.45c-0.33-0.62-0.49-1.31-0.49-2.08c0-0.74 0.15-1.42 0.46-2.04c0.31-0.62 0.74-1.12 1.3-1.49c0.56-0.37 1.21-0.55 1.95-0.55c0.75 0 1.4 0.17 1.95 0.5c0.55 0.33 0.97 0.8 1.27 1.39c0.3 0.59 0.44 1.26 0.44 2.03c0 0.15-0.02 0.28-0.05 0.39h-6.04c0.03 0.58 0.17 1.07 0.42 1.47c0.25 0.4 0.57 0.7 0.95 0.9c0.39 0.2 0.79 0.3 1.21 0.3c0.98 0 1.73-0.46 2.27-1.38l1.08 0.53c-0.33 0.62-0.78 1.11-1.34 1.47c-0.56 0.36-1.25 0.54-2.05 0.54c-0.73 0-1.39-0.18-1.97-0.53zm4.17-4.35c-0.02-0.32-0.11-0.64-0.27-0.96c-0.16-0.32-0.41-0.59-0.76-0.81c-0.34-0.22-0.78-0.33-1.3-0.33c-0.6 0-1.11 0.19-1.52 0.58c-0.42 0.38-0.69 0.89-0.82 1.52h4.67zm2.73 4.63v-10.74h1.28v10.74h-1.28zm4.49-0.3c-0.6-0.36-1.07-0.85-1.4-1.47c-0.34-0.62-0.5-1.31-0.5-2.06c0-0.75 0.17-1.43 0.5-2.05c0.33-0.62 0.8-1.11 1.4-1.47c0.6-0.36 1.28-0.54 2.03-0.54c0.75 0 1.42 0.18 2.03 0.54c0.6 0.36 1.07 0.85 1.4 1.47c0.34 0.62 0.5 1.3 0.5 2.05c0 0.75-0.17 1.44-0.5 2.06c-0.33 0.62-0.8 1.11-1.4 1.47c-0.6 0.36-1.28 0.54-2.03 0.54c-0.75 0-1.42-0.18-2.03-0.54zm3.34-0.97c0.41-0.24 0.73-0.57 0.97-1.01c0.25-0.44 0.37-0.96 0.37-1.54c0-0.59-0.12-1.1-0.37-1.54c-0.24-0.44-0.57-0.78-0.97-1.01c-0.41-0.24-0.84-0.35-1.31-0.35c-0.47 0-0.91 0.12-1.32 0.35c-0.41 0.23-0.74 0.57-0.98 1.01c-0.25 0.44-0.37 0.95-0.37 1.54c0 0.59 0.12 1.11 0.37 1.54c0.24 0.44 0.57 0.78 0.98 1.01c0.41 0.23 0.85 0.35 1.32 0.35c0.47 0 0.91-0.12 1.31-0.35zm3.87 4.51v-10.89h1.22v1.14h0.06c0.23-0.39 0.58-0.72 1.04-0.98c0.47-0.26 0.99-0.4 1.57-0.4c0.68 0 1.3 0.17 1.86 0.53c0.56 0.35 1 0.83 1.32 1.46c0.32 0.62 0.48 1.31 0.48 2.08c0 0.78-0.16 1.48-0.48 2.09c-0.32 0.62-0.76 1.1-1.32 1.45c-0.56 0.35-1.18 0.53-1.86 0.53c-0.58 0-1.1-0.13-1.57-0.4c-0.47-0.27-0.81-0.59-1.04-0.97h-0.06l0.06 1.05v3.31h-1.28zm4.98-4.51c0.39-0.24 0.7-0.58 0.94-1.03c0.23-0.45 0.35-0.95 0.35-1.52c0-0.57-0.12-1.08-0.35-1.52c-0.23-0.45-0.55-0.79-0.94-1.03c-0.39-0.24-0.8-0.36-1.25-0.36c-0.44 0-0.85 0.12-1.24 0.36c-0.39 0.24-0.7 0.58-0.93 1.02c-0.23 0.44-0.34 0.95-0.34 1.53c0 0.58 0.12 1.09 0.34 1.53c0.23 0.44 0.54 0.78 0.93 1.02c0.39 0.24 0.8 0.36 1.24 0.36c0.44 0 0.86-0.12 1.25-0.36zm5.39 0.99c-0.58-0.35-1.03-0.83-1.36-1.45c-0.33-0.62-0.49-1.31-0.49-2.08c0-0.74 0.15-1.42 0.46-2.04c0.31-0.62 0.74-1.12 1.3-1.49c0.56-0.37 1.21-0.55 1.95-0.55c0.75 0 1.4 0.17 1.95 0.5c0.55 0.33 0.97 0.8 1.27 1.39c0.3 0.59 0.44 1.26 0.44 2.03c0 0.15-0.02 0.28-0.04 0.39h-6.05c0.03 0.58 0.17 1.07 0.42 1.47c0.25 0.4 0.57 0.7 0.95 0.9c0.39 0.2 0.79 0.3 1.21 0.3c0.98 0 1.73-0.46 2.27-1.38l1.08 0.53c-0.33 0.62-0.78 1.11-1.34 1.47c-0.56 0.36-1.25 0.54-2.05 0.54c-0.73 0-1.39-0.18-1.97-0.53zm4.17-4.35c-0.02-0.32-0.11-0.64-0.27-0.96c-0.16-0.32-0.41-0.59-0.76-0.81c-0.34-0.22-0.78-0.33-1.3-0.33c-0.6 0-1.11 0.19-1.52 0.58c-0.42 0.38-0.69 0.89-0.82 1.52h4.67zm2.73 4.63v-7.65h1.22v1.23h0.06c0.15-0.42 0.44-0.77 0.87-1.04c0.43-0.28 0.88-0.41 1.35-0.41c0.35 0 0.65 0.05 0.9 0.15v1.38c-0.32-0.16-0.68-0.24-1.08-0.24c-0.37 0-0.71 0.11-1.02 0.32c-0.31 0.21-0.56 0.49-0.74 0.85c-0.18 0.35-0.28 0.74-0.28 1.15v4.28h-1.28zm9.4-0.53c-0.7-0.51-1.18-1.22-1.44-2.14l1.22-0.5c0.17 0.64 0.48 1.17 0.95 1.58c0.46 0.41 1 0.62 1.62 0.62c0.62 0 1.15-0.17 1.58-0.5c0.43-0.33 0.64-0.79 0.64-1.37c0-0.5-0.18-0.91-0.55-1.24c-0.36-0.32-0.96-0.63-1.79-0.91l-0.67-0.24c-0.76-0.27-1.38-0.63-1.86-1.07c-0.48-0.44-0.72-1.05-0.72-1.83c0-0.51 0.14-0.98 0.42-1.42c0.28-0.44 0.67-0.78 1.17-1.04c0.5-0.26 1.06-0.39 1.68-0.39c0.62 0 1.16 0.12 1.62 0.35c0.46 0.23 0.83 0.51 1.1 0.84c0.28 0.33 0.47 0.65 0.58 0.98l-1.2 0.51c-0.1-0.37-0.33-0.71-0.68-1c-0.35-0.3-0.82-0.45-1.4-0.45c-0.55 0-1.02 0.16-1.41 0.47c-0.39 0.31-0.58 0.7-0.58 1.17c0 0.42 0.17 0.76 0.5 1.03c0.33 0.26 0.83 0.51 1.5 0.74l0.7 0.24c0.91 0.33 1.62 0.74 2.13 1.24c0.51 0.49 0.77 1.17 0.77 2.02c0 0.69-0.18 1.27-0.53 1.74c-0.36 0.47-0.8 0.81-1.34 1.04c-0.54 0.22-1.09 0.33-1.67 0.33c-0.84 0-1.61-0.26-2.31-0.77zm9.07 0.49c-0.27-0.1-0.49-0.23-0.67-0.4c-0.2-0.19-0.35-0.41-0.45-0.66c-0.1-0.25-0.15-0.55-0.15-0.91v-4.49h-1.33v-1.16h1.33v-2.16h1.28v2.16h1.86v1.16h-1.86v4.17c0 0.42 0.08 0.73 0.24 0.93c0.19 0.22 0.47 0.33 0.83 0.33c0.29 0 0.57-0.08 0.84-0.25v1.24c-0.15 0.07-0.3 0.12-0.46 0.15c-0.16 0.03-0.35 0.04-0.59 0.04c-0.31 0-0.6-0.05-0.86-0.15zm3.98-0.54c-0.48-0.54-0.73-1.29-0.73-2.27v-4.81h1.28v4.62c0 0.73 0.17 1.27 0.5 1.61c0.33 0.34 0.77 0.51 1.33 0.51c0.43 0 0.81-0.12 1.15-0.34c0.34-0.23 0.59-0.53 0.78-0.9c0.19-0.37 0.28-0.76 0.28-1.17v-4.32h1.27v7.65h-1.21v-1.11h-0.06c-0.21 0.38-0.55 0.7-1.01 0.96c-0.46 0.26-0.95 0.39-1.47 0.39c-0.92 0-1.62-0.27-2.11-0.81zm8.96 0.29c-0.56-0.35-0.99-0.83-1.31-1.45c-0.32-0.62-0.48-1.31-0.48-2.09c0-0.77 0.16-1.46 0.48-2.08c0.32-0.62 0.76-1.11 1.31-1.46c0.55-0.35 1.17-0.53 1.85-0.53c0.59 0 1.12 0.13 1.57 0.4c0.46 0.27 0.81 0.59 1.05 0.98h0.06l-0.06-1.06v-3.17h1.28v10.74h-1.22v-1.13h-0.06c-0.24 0.38-0.59 0.7-1.05 0.97c-0.46 0.27-0.98 0.4-1.57 0.4c-0.68 0-1.3-0.18-1.85-0.53zm3.25-0.99c0.38-0.24 0.69-0.58 0.93-1.02c0.23-0.44 0.35-0.95 0.35-1.53c0-0.58-0.12-1.09-0.35-1.53c-0.24-0.44-0.55-0.78-0.93-1.02c-0.38-0.24-0.8-0.36-1.25-0.36c-0.44 0-0.86 0.12-1.25 0.36c-0.39 0.24-0.7 0.58-0.94 1.03c-0.24 0.45-0.35 0.95-0.35 1.52c0 0.57 0.12 1.08 0.35 1.52c0.23 0.45 0.55 0.79 0.94 1.03c0.39 0.24 0.81 0.36 1.25 0.36c0.45 0 0.87-0.12 1.25-0.36zm5.65 0.99c-0.58-0.35-1.03-0.83-1.36-1.45c-0.32-0.62-0.49-1.31-0.49-2.08c0-0.74 0.15-1.42 0.46-2.04c0.31-0.62 0.74-1.12 1.3-1.49c0.56-0.37 1.21-0.55 1.95-0.55c0.75 0 1.4 0.17 1.95 0.5c0.55 0.33 0.97 0.8 1.27 1.39c0.3 0.59 0.44 1.26 0.44 2.03c0 0.15-0.01 0.28-0.04 0.39h-6.04c0.03 0.58 0.17 1.07 0.42 1.47c0.25 0.4 0.57 0.7 0.95 0.9c0.39 0.2 0.79 0.3 1.21 0.3c0.98 0 1.74-0.46 2.27-1.38l1.08 0.53c-0.33 0.62-0.78 1.11-1.34 1.47c-0.56 0.36-1.25 0.54-2.05 0.54c-0.73 0-1.39-0.18-1.97-0.53zm4.17-4.35c-0.02-0.32-0.11-0.64-0.27-0.96c-0.16-0.32-0.41-0.59-0.76-0.81c-0.34-0.22-0.78-0.33-1.3-0.33c-0.6 0-1.11 0.19-1.52 0.58c-0.41 0.38-0.69 0.89-0.82 1.52h4.66zm2.74 4.63v-7.65h1.22v1.13h0.06c0.21-0.38 0.54-0.7 1-0.97c0.46-0.26 0.95-0.4 1.47-0.4c0.92 0 1.62 0.27 2.11 0.8c0.49 0.54 0.73 1.26 0.73 2.18v4.91h-1.27v-4.71c0-0.71-0.17-1.22-0.51-1.54c-0.34-0.32-0.8-0.48-1.39-0.48c-0.41 0-0.78 0.12-1.1 0.34c-0.32 0.23-0.58 0.53-0.76 0.91c-0.18 0.38-0.27 0.77-0.27 1.18v4.3h-1.28zm10.02-0.03c-0.26-0.1-0.49-0.23-0.67-0.4c-0.2-0.19-0.35-0.41-0.45-0.66c-0.1-0.25-0.15-0.55-0.15-0.91v-4.49h-1.34v-1.16h1.34v-2.16h1.28v2.16h1.86v1.16h-1.86v4.17c0 0.42 0.08 0.73 0.24 0.93c0.19 0.22 0.47 0.33 0.83 0.33c0.29 0 0.57-0.08 0.84-0.25v1.24c-0.15 0.07-0.3 0.12-0.46 0.15c-0.16 0.03-0.35 0.04-0.59 0.04c-0.31 0-0.6-0.05-0.86-0.15zm8.85-0.46c-0.85-0.49-1.52-1.16-2-2.02c-0.48-0.85-0.73-1.81-0.73-2.86c0-1.05 0.24-2 0.73-2.86c0.49-0.86 1.15-1.53 2-2.02c0.85-0.49 1.79-0.73 2.83-0.73c0.8 0 1.53 0.15 2.2 0.46c0.66 0.31 1.24 0.74 1.73 1.3l-0.91 0.88c-0.41-0.49-0.86-0.85-1.34-1.08c-0.49-0.23-1.04-0.35-1.67-0.35c-0.78 0-1.5 0.18-2.14 0.55c-0.65 0.37-1.17 0.88-1.55 1.54c-0.38 0.67-0.58 1.43-0.58 2.3c0 0.87 0.19 1.64 0.58 2.3c0.38 0.67 0.9 1.18 1.55 1.54c0.65 0.37 1.36 0.55 2.14 0.55c1.3 0 2.41-0.54 3.31-1.61l0.93 0.9c-0.5 0.59-1.12 1.06-1.84 1.4c-0.73 0.34-1.53 0.52-2.4 0.52c-1.04 0-1.98-0.25-2.83-0.74zm8.41 0.5v-10.74h1.27v10.74h-1.27zm3.73-0.57c-0.49-0.54-0.73-1.29-0.73-2.27v-4.81h1.27v4.62c0 0.73 0.17 1.27 0.5 1.61c0.33 0.34 0.78 0.51 1.34 0.51c0.43 0 0.81-0.12 1.15-0.34c0.33-0.23 0.59-0.53 0.78-0.9c0.19-0.37 0.28-0.76 0.28-1.17v-4.32h1.27v7.65h-1.21v-1.11h-0.06c-0.21 0.38-0.55 0.7-1.01 0.96c-0.46 0.26-0.95 0.39-1.47 0.39c-0.92 0-1.62-0.27-2.11-0.81zm9.97 0.41c-0.47-0.27-0.81-0.59-1.04-0.97h-0.06v1.13h-1.22v-10.74h1.27v3.17l-0.06 1.06h0.06c0.23-0.39 0.58-0.72 1.04-0.98c0.47-0.26 0.99-0.4 1.57-0.4c0.68 0 1.3 0.17 1.86 0.53c0.56 0.35 1 0.83 1.32 1.46c0.32 0.62 0.48 1.31 0.48 2.08c0 0.78-0.16 1.48-0.48 2.09c-0.32 0.62-0.76 1.1-1.32 1.45c-0.56 0.35-1.18 0.53-1.86 0.53c-0.58 0-1.1-0.13-1.57-0.4zm2.66-1.12c0.39-0.24 0.7-0.58 0.94-1.03c0.24-0.45 0.35-0.95 0.35-1.52c0-0.57-0.12-1.08-0.35-1.52c-0.23-0.45-0.55-0.79-0.94-1.03c-0.39-0.24-0.81-0.36-1.25-0.36c-0.44 0-0.85 0.12-1.25 0.36c-0.39 0.24-0.7 0.58-0.93 1.02c-0.23 0.44-0.34 0.95-0.34 1.53c0 0.58 0.11 1.09 0.34 1.53c0.23 0.44 0.54 0.78 0.93 1.02c0.39 0.24 0.81 0.36 1.25 0.36c0.44 0 0.86-0.12 1.25-0.36z" />
			<g id="Group">
				<path id="Path" class="s1" d="m1 5.69l9.11-5.34c1.24-0.73 2.83-0.3 3.54 0.96c0.72 1.26 0.29 2.87-0.95 3.6l-5.27 3.09l-6.43-2.31z" />
			</g>
			<g id="Group">
				<path id="Path" class="s2" d="m10.19 14.67l-8.92-5.03c-1.21-0.69-1.63-2.2-0.93-3.39c0.7-1.19 2.25-1.59 3.47-0.91l8.92 5.03c1.21 0.69 1.63 2.2 0.93 3.39c-0.47 0.8-1.32 1.24-2.2 1.24c-0.43 0-0.87-0.11-1.27-0.33z" />
			</g>
			<g id="Group">
				<path id="Path" class="s3" d="m17.35 13.69c-0.72-1.25-0.29-2.85 0.95-3.57l5.35-3.12l6.35 2.34l-9.11 5.3c-0.41 0.24-0.85 0.35-1.29 0.35c-0.9 0-1.77-0.47-2.25-1.31z" />
			</g>
			<g id="Group">
				<path id="Path" class="s4" d="m27.19 9.67l-8.92-5.03c-1.21-0.69-1.63-2.2-0.93-3.39c0.7-1.19 2.25-1.59 3.47-0.91l8.92 5.03c1.21 0.69 1.63 2.2 0.93 3.39c-0.47 0.8-1.32 1.24-2.2 1.24c-0.43 0-0.87-0.11-1.27-0.33z" />
			</g>
		</g>
	</g>
</svg>