<svg version="1.2" baseProfile="tiny-ps" xmlns="http://www.w3.org/2000/svg" viewBox="0 0 31 15" width="31" height="15">
	<title>logo-svg</title>
	<style>
		tspan { white-space:pre }
		.s0 { fill: #ea4335 } 
		.s1 { fill: #4285f4 } 
		.s2 { fill: #fbbc04 } 
		.s3 { fill: #0f9d58 } 
	</style>
	<g id="Page-1">
		<g id="Group-2">
			<g id="Group">
				<path id="Path" class="s0" d="m1 5.69l9.11-5.34c1.24-0.73 2.83-0.3 3.54 0.96c0.72 1.26 0.29 2.87-0.95 3.6l-5.27 3.09l-6.43-2.31z" />
			</g>
			<g id="Group">
				<path id="Path" class="s1" d="m10.19 14.67l-8.92-5.03c-1.21-0.69-1.63-2.2-0.93-3.39c0.7-1.19 2.25-1.59 3.47-0.91l8.92 5.03c1.21 0.69 1.63 2.2 0.93 3.39c-0.47 0.8-1.32 1.24-2.2 1.24c-0.43 0-0.87-0.11-1.27-0.33z" />
			</g>
			<g id="Group">
				<path id="Path" class="s2" d="m17.35 13.69c-0.72-1.25-0.29-2.85 0.95-3.57l5.35-3.12l6.35 2.34l-9.11 5.3c-0.41 0.24-0.85 0.35-1.29 0.35c-0.9 0-1.77-0.47-2.25-1.31z" />
			</g>
			<g id="Group">
				<path id="Path" class="s3" d="m27.19 9.67l-8.92-5.03c-1.21-0.69-1.63-2.2-0.93-3.39c0.7-1.19 2.25-1.59 3.47-0.91l8.92 5.03c1.21 0.69 1.63 2.2 0.93 3.39c-0.47 0.8-1.32 1.24-2.2 1.24c-0.43 0-0.87-0.11-1.27-0.33z" />
			</g>
		</g>
	</g>
</svg>